<svg width="120" height="95" viewBox="0 0 120 95" fill="none" xmlns="http://www.w3.org/2000/svg">
<g clip-path="url(#clip0_2_761)">
<path d="M32.6136 67.9926L22.5973 45.2721H27.3157L32.5999 57.4332L37.8842 45.2721H42.6573L32.609 67.9926H32.6136Z" fill="#001F4E"/>
<path d="M44.3731 64.1319C43.8757 65.2681 43.3646 66.3861 42.849 67.5224H38.0484L48.1652 44.8567L58.3093 67.5224H53.4951C52.9977 66.3998 52.5003 65.2681 52.0029 64.1456H44.4051L44.3777 64.1319H44.3731ZM50.173 60.2029L48.2063 55.5667L46.2258 60.2029H50.1685H50.173Z" fill="#001F4E"/>
<path d="M64.4743 45.2721V63.1099H73.3863V67.5773H60.0068V45.2721H64.4743Z" fill="#001F4E"/>
<path d="M2.07172 71.1776C3.22166 71.1776 4.30772 71.5883 5.13367 72.4097C6.63042 73.9064 6.63042 76.8269 5.13367 78.3237C4.31228 79.1405 3.22166 79.5512 2.07172 79.5512H1.90735e-06V71.1822H2.07172V71.1776ZM2.08085 77.8674C2.7699 77.8674 3.40419 77.6757 3.89246 77.1874C4.38073 76.6992 4.57239 76.0512 4.57239 75.3621C4.57239 74.6731 4.38073 74.0296 3.88334 73.5368C3.39507 73.044 2.74709 72.8478 2.0626 72.8478H1.67928V77.8719H2.08085V77.8674Z" fill="#001F4E"/>
<path d="M11.9101 71.1595V72.8342H8.56068V74.5135H11.075V76.1882H8.56068V77.8629H11.9101V79.5422H6.87683V71.1549H11.9101V71.1595Z" fill="#001F4E"/>
<path d="M15.1774 77.8854C15.6383 77.8854 16.0262 77.5021 16.0262 77.0367C16.0262 76.6762 15.8847 76.448 15.5972 76.3431C14.9949 76.1195 15.1409 76.1697 14.5522 75.9689C13.9316 75.7544 13.3612 75.3346 12.9733 74.8098C12.7452 74.4995 12.6311 74.1116 12.6311 73.6507C12.6311 72.9526 12.8821 72.3548 13.3795 71.8574C13.8769 71.36 14.4792 71.109 15.182 71.109C15.8847 71.109 16.4779 71.36 16.9753 71.8574C17.4773 72.3548 17.7237 72.9571 17.7237 73.6507H16.0307C16.0307 73.1944 15.6474 72.8065 15.1865 72.8065C14.7256 72.8065 14.3378 73.1899 14.3378 73.6553C14.3378 73.9565 14.4564 74.1846 14.7028 74.3444C15.2002 74.6683 15.1455 74.6045 15.7432 74.7824C16.3867 74.9695 16.9708 75.3711 17.3723 75.8867C17.6051 76.1879 17.7283 76.5804 17.7283 77.0504C17.7283 77.7531 17.4773 78.3509 16.9799 78.8529C16.4825 79.3503 15.8801 79.6012 15.1865 79.6012C14.4929 79.6012 13.886 79.3503 13.384 78.8529C12.8821 78.3555 12.6357 77.7531 12.6357 77.0504H14.3332C14.3332 77.5204 14.7119 77.8991 15.182 77.8991V77.89L15.1774 77.8854Z" fill="#001F4E"/>
<path d="M1.90735e-06 83.2932H17.7328V87.1948H1.90735e-06V83.2932Z" fill="#539536"/>
<path d="M75.4033 56.9814H92.7528V60.883H75.4033V56.9814Z" fill="#539536"/>
<path d="M32.5406 86.086L43.4149 71.1687V93.8892H38.9474V84.6851L32.5406 93.5287L26.1338 84.6851V93.8892H21.6664V71.1687L32.5406 86.086Z" fill="#001F4E"/>
<path d="M64.3054 74.7963C66.5186 77.0095 67.6275 79.6653 67.6275 82.7683C67.6275 85.8713 66.5186 88.5226 64.3054 90.7266C62.0923 92.9261 59.4364 94.035 56.3334 94.035C53.2304 94.035 50.5746 92.9261 48.3751 90.7266C46.1756 88.5271 45.0667 85.8713 45.0667 82.7683C45.0667 79.6653 46.1756 77.014 48.3751 74.7963C50.5746 72.5831 53.2304 71.4742 56.3334 71.4742C59.4364 71.4742 62.0877 72.5831 64.3054 74.7963ZM51.5603 77.9632C50.246 79.2911 49.5798 80.8837 49.5798 82.7364C49.5798 84.589 50.246 86.1953 51.5603 87.5095C52.8745 88.8238 54.4671 89.49 56.3334 89.49C58.1998 89.49 59.7787 88.8238 61.1066 87.5095C62.4345 86.1953 63.1007 84.6027 63.1007 82.7364C63.1007 80.87 62.4345 79.2911 61.1066 77.9632C59.7787 76.6353 58.1861 75.969 56.3334 75.969C54.4807 75.969 52.8745 76.6353 51.5603 77.9632Z" fill="#001F4E"/>
<path d="M82.636 83.9139V71.584H87.1035V94.3044L73.724 81.5455V93.8892H69.2566V71.1687L82.636 83.9139Z" fill="#001F4E"/>
<path d="M104.658 71.5884V76.0421H99.082V93.8936H94.6146V76.0421H89.0383V71.5884H104.663H104.658Z" fill="#001F4E"/>
<path d="M113.205 89.4626C114.437 89.4626 115.46 88.4404 115.46 87.2084C115.46 86.2546 115.085 85.6432 114.323 85.3694C112.717 84.7761 113.105 84.913 111.544 84.3746C109.897 83.8087 108.377 82.6862 107.351 81.2898C106.744 80.4593 106.438 79.4371 106.438 78.2051C106.438 76.3524 107.104 74.7598 108.432 73.4319C109.76 72.104 111.353 71.4377 113.219 71.4377C115.085 71.4377 116.664 72.104 117.992 73.4319C119.32 74.7598 119.986 76.3524 119.986 78.2051H115.491C115.491 76.9867 114.469 75.9645 113.251 75.9645C112.033 75.9645 110.997 76.9867 110.997 78.2187C110.997 79.0219 111.316 79.6288 111.964 80.044C113.292 80.9019 113.141 80.7377 114.729 81.2077C116.445 81.7051 117.997 82.7729 119.06 84.1419C119.681 84.945 120 85.9808 120 87.2403C120 89.1067 119.338 90.6993 118.006 92.0272C116.678 93.3551 115.085 94.0213 113.233 94.0213C111.38 94.0213 109.774 93.3551 108.446 92.0272C107.118 90.6993 106.452 89.1067 106.452 87.2403H110.965C110.965 88.4861 111.973 89.4946 113.219 89.4946L113.205 89.4672V89.4626Z" fill="#001F4E"/>
<path d="M63.8719 19.7361C67.4313 20.2517 71.2735 20.4571 77.5526 19.8045C75.0154 16.3228 62.3158 0 47.175 0C38.5595 0 31.8287 5.28882 27.2928 10.4909C30.5875 7.34228 35.1918 4.65909 41.3522 4.65909C54.1339 4.65909 61.7546 16.3593 63.8719 19.7315V19.7361Z" fill="#EEE824"/>
<path d="M35.2603 11.6547C42.4566 11.6547 47.1704 14.9175 49.9449 17.409C52.4684 17.7604 54.6541 18.13 56.6711 18.4722C59.3497 18.9286 61.5492 19.3986 63.8719 19.7363C61.7546 16.364 54.1294 4.66382 41.3523 4.66382C35.1964 4.66382 30.5875 7.34245 27.2929 10.4957C24.8971 13.2427 23.1129 15.9579 21.9903 17.8562C22.1774 17.8151 22.3645 17.7741 22.5516 17.733C24.8104 15.1456 29.0086 11.6593 35.2603 11.6593V11.6547Z" fill="#82C341"/>
<path d="M35.2603 11.6548C29.0086 11.6548 24.8104 15.1457 22.5516 17.7285C28.5158 16.4371 35.8718 15.8804 45.0029 16.8158C46.1345 16.9299 47.2069 17.0531 48.22 17.1809C48.8132 17.2539 49.3881 17.3315 49.9449 17.4091C47.1704 14.913 42.4566 11.6548 35.2603 11.6548Z" fill="#539536"/>
<path d="M76.9 20.5257C77.0521 20.3523 77.0521 20.3523 76.9 20.5257V20.5257Z" fill="#2A3B8F"/>
<path d="M26.6729 26.7687C26.6499 26.7411 26.6269 26.7182 26.6039 26.6906C26.5948 26.6814 26.5902 26.6768 26.581 26.6676C26.6085 26.6998 26.6407 26.7319 26.6729 26.7687Z" fill="black"/>
<path d="M63.3289 21.0869C59.2585 25.8647 51.6698 32.6548 41.4344 32.6548C36.2368 32.6548 32.0934 30.898 28.8626 28.5479C28.8535 28.5433 28.8443 28.5342 28.8352 28.5296C28.6709 28.411 28.5067 28.2878 28.347 28.1646C28.2739 28.1098 28.2009 28.0505 28.1279 27.9912C28.0093 27.8999 27.8906 27.8041 27.7766 27.7128C27.5803 27.5531 27.3887 27.3888 27.1925 27.22C27.1696 27.2017 27.1514 27.1835 27.1286 27.1652C26.9506 27.0101 26.7726 26.8503 26.6038 26.6906C30.9936 31.5824 36.6247 35.6939 43.1775 36.9762C53.3719 38.9704 62.8543 33.7956 70.4476 27.0466C72.9254 24.8425 75.2025 22.4742 77.2377 20.1287C73.1216 21.5068 68.3074 21.6026 63.3243 21.0869H63.3289ZM60.705 33.8869C61.5036 33.4716 62.2839 33.0336 63.046 32.5681C62.2839 33.0336 61.499 33.4716 60.705 33.8869Z" fill="#263287"/>
<path d="M63.0459 32.5679C62.2839 33.0333 61.499 33.4714 60.705 33.8867C61.5036 33.4714 62.2839 33.0333 63.0459 32.5679Z" fill="black"/>
<path d="M63.3243 21.087C61.1796 20.8634 59.0029 20.5303 56.8354 20.1333C54.4807 19.7043 52.1535 19.3621 49.5387 19.0472C46.8464 21.7076 41.8131 25.5042 35.0139 25.5042C28.8946 25.5042 24.637 22.4332 22.1501 19.8732C21.9493 19.9234 21.7485 19.9781 21.5523 20.0329C22.7387 21.8947 24.4362 24.2813 26.6038 26.6953C26.7772 26.855 26.9506 27.0101 27.1286 27.1698C27.1514 27.1881 27.1696 27.2063 27.1925 27.2246C27.3841 27.3889 27.5758 27.5532 27.7766 27.7174C27.8952 27.8133 28.0093 27.9045 28.1279 27.9958C28.2009 28.0551 28.2739 28.1099 28.347 28.1692C28.5067 28.2924 28.6709 28.4156 28.8352 28.5343C28.8444 28.5388 28.8535 28.5479 28.8626 28.5525C32.0934 30.9026 36.2368 32.6594 41.4344 32.6594C51.6698 32.6594 59.2539 25.8693 63.3289 21.0916C63.3289 21.0916 63.3289 21.0916 63.3243 21.0916V21.087Z" fill="#265EAC"/>
<path d="M28.8352 28.5295C28.6709 28.4108 28.5112 28.2876 28.347 28.1644C28.5067 28.2876 28.6709 28.4063 28.8352 28.5295Z" fill="#265EAC"/>
<path d="M28.8637 28.5484C28.8637 28.5484 28.8447 28.5342 28.8352 28.5294C28.8447 28.5342 28.8542 28.5436 28.8637 28.5484Z" fill="#265EAC"/>
<path d="M22.1501 19.8775C24.6325 22.4329 28.89 25.5085 35.0139 25.5085C41.8131 25.5085 46.8464 21.7119 49.5387 19.0515C48.0785 18.8736 46.527 18.7047 44.8295 18.5313C35.5022 17.5776 28.0595 18.3488 22.1501 19.8775Z" fill="#52B9E9"/>
<path style="mix-blend-mode:multiply" d="M60.6959 33.8868C61.4945 33.4715 62.2748 33.0334 63.0368 32.568C62.2748 33.0334 61.4899 33.4715 60.6959 33.8868ZM57.3054 20.2152C54.9553 19.7726 52.1443 19.3574 49.5296 19.0425C48.0694 18.8645 46.5179 18.6957 44.8203 18.5223C35.493 17.5686 28.0503 18.3397 22.1409 19.8684C21.9401 19.9186 21.7394 19.9734 21.5431 20.0282C22.7296 21.89 24.4271 24.2765 26.5947 26.6905C30.9845 31.5823 36.6156 35.6938 43.1684 36.9761C53.3627 38.9702 62.8452 33.7955 70.4384 27.0464C72.9163 24.8424 75.1934 22.4741 77.2286 20.1285C73.1125 21.5066 67.3126 22.0999 57.3008 20.2152H57.3054Z" fill="url(#paint0_linear_2_761)"/>
<path d="M63.8719 19.736C59.9886 19.1701 48.6854 16.8611 44.9572 16.5554C35.8079 15.8116 28.5158 16.4413 22.5516 17.7281C22.3645 17.7692 22.1774 17.8103 21.9903 17.8513C13.2334 19.8409 7.53393 23.4003 3.61866 26.0287L5.40289 28.1734C8.52416 25.723 13.6122 22.191 21.5523 20.0326C21.7485 19.9778 21.9493 19.9231 22.1501 19.8729C28.7303 18.3305 35.1051 17.5912 44.6789 18.5678C49.3653 19.0469 57.9899 20.5163 61.928 20.9726C68.6451 21.7529 73.1262 21.5065 77.2423 20.1239L77.5526 19.7999C71.2735 20.4524 67.4769 20.2562 63.8719 19.7314V19.736Z" fill="#001F4E"/>
</g>
<defs>
<linearGradient id="paint0_linear_2_761" x1="49.3836" y1="31.2036" x2="49.3836" y2="12.4531" gradientUnits="userSpaceOnUse">
<stop stop-color="white"/>
<stop offset="1" stop-color="#231F20"/>
</linearGradient>
<clipPath id="clip0_2_761">
<rect width="120" height="94.3042" fill="white"/>
</clipPath>
</defs>
</svg>
